<svg id="Capa_1" enable-background="new 0 0 512 512" height="512" viewBox="0 0 512 512" width="512" xmlns="http://www.w3.org/2000/svg" xmlns:xlink="http://www.w3.org/1999/xlink"><linearGradient id="SVGID_1_" gradientUnits="userSpaceOnUse" x1="256" x2="256" y1="512" y2="0"><stop offset="0" stop-color="#ffe59a"/><stop offset="1" stop-color="#ffffd5"/></linearGradient><linearGradient id="SVGID_2_" gradientUnits="userSpaceOnUse" x1="256" x2="256" y1="407" y2="105"><stop offset="0" stop-color="#ffde00"/><stop offset="1" stop-color="#fd5900"/></linearGradient><g><g><circle cx="256" cy="256" fill="url(#SVGID_1_)" r="256"/></g><g><g><path d="m300.318 176.059v-17.765c0-4.91-3.964-8.883-8.864-8.883h-124.09c-4.899 0-8.864 3.973-8.864 8.883v17.765c0 4.909 3.964 8.882 8.864 8.882h124.091c4.899 0 8.863-3.973 8.863-8.882zm26.591 17.764c-14.663 0-26.591 11.953-26.591 26.647v35.53c0 4.901-3.973 8.882-8.864 8.882h-8.864v-62.177h-106.363v195.412c0 4.91 3.964 8.882 8.864 8.882h88.636c4.899 0 8.864-3.973 8.864-8.882v-26.647h26.591c24.436 0 44.318-19.925 44.318-44.412v-106.587c0-14.694-11.928-26.648-26.591-26.648zm8.864 133.236c0 14.694-11.928 26.647-26.591 26.647h-26.591v-71.059h8.864c14.663 0 26.591-11.953 26.591-26.647v-35.529c0-4.901 3.973-8.883 8.864-8.883s8.864 3.981 8.864 8.883v106.588zm-53.182-213.177c0-4.91-3.964-8.882-8.864-8.882h-88.636c-4.899 0-8.864 3.973-8.864 8.882v17.765h106.364z" fill="url(#SVGID_2_)"/></g></g></g></svg>